<?xml version="1.0" encoding="UTF-8" standalone="no"?>
<svg
   version="1.1"
   id="Layer_1"
   x="0px"
   y="0px"
   width="512"
   height="512"
   viewBox="0 0 512 512"
   style="enable-background:new 0 0 512 512;"
   xml:space="preserve"
   sodipodi:docname="icon.svg"
   inkscape:export-filename="icon.png"
   inkscape:export-xdpi="96"
   inkscape:export-ydpi="96"
   inkscape:version="1.4.3 (0d15f75, 2025-12-25)"
   xmlns:inkscape="http://www.inkscape.org/namespaces/inkscape"
   xmlns:sodipodi="http://sodipodi.sourceforge.net/DTD/sodipodi-0.dtd"
   xmlns="http://www.w3.org/2000/svg"
   xmlns:svg="http://www.w3.org/2000/svg"><defs
   id="defs1" /><sodipodi:namedview
   id="namedview1"
   pagecolor="#ffffff"
   bordercolor="#000000"
   borderopacity="0.25"
   inkscape:showpageshadow="2"
   inkscape:pageopacity="0.0"
   inkscape:pagecheckerboard="0"
   inkscape:deskcolor="#d1d1d1"
   inkscape:zoom="1.5761719"
   inkscape:cx="255.68278"
   inkscape:cy="256"
   inkscape:window-width="1920"
   inkscape:window-height="1009"
   inkscape:window-x="1912"
   inkscape:window-y="-8"
   inkscape:window-maximized="1"
   inkscape:current-layer="Layer_1" />
<title
   id="title1">error-handler</title>
<g
   transform="scale(19.6923)"
   id="g1">
<!-- Thin outer circle -->
<circle
   cx="13"
   cy="13"
   r="12"
   fill="none"
   stroke="#E53E3E"
   stroke-width="1.50"
   id="circle1" />
<!-- Red 'X' in the middle -->
<path
   fill="#E53E3E"
   stroke="#E53E3E"
   stroke-width="1.25"
   d="M17.7,8.3c-0.4-0.4-1-0.4-1.4,0L13,11.6l-3.3-3.3c-0.4-0.4-1-0.4-1.4,0s-0.4,1,0,1.4L11.6,13l-3.3,3.3     c-0.4,0.4-0.4,1,0,1.4C8.5,17.9,8.7,18,9,18s0.5-0.1,0.7-0.3L13,14.4l3.3,3.3c0.2,0.2,0.5,0.3,0.7,0.3s0.5-0.1,0.7-0.3     c0.4-0.4,0.4-1,0-1.4L14.4,13l3.3-3.3C18.1,9.3,18.1,8.7,17.7,8.3z"
   id="path1" />
</g>
</svg>
