<?xml version="1.0" encoding="utf-8"?>
<svg version="1.1" id="Layer_1" xmlns="http://www.w3.org/2000/svg" xmlns:xlink="http://www.w3.org/1999/xlink" x="0px" y="0px"
     viewBox="0 0 26 26" style="enable-background:new 0 0 26 26;" xml:space="preserve">
<style type="text/css">
    .st0{fill:#E53E3E; stroke:#E53E3E; stroke-width:1.25;}
    .st1{fill:none;stroke:#E53E3E;stroke-width:1.50;}
</style>
<title>error-handler</title>
<!-- Thin outer circle -->
<circle class="st1" cx="13" cy="13" r="12"/>
<!-- Red 'X' in the middle -->
<path class="st0" d="M17.7,8.3c-0.4-0.4-1-0.4-1.4,0L13,11.6l-3.3-3.3c-0.4-0.4-1-0.4-1.4,0s-0.4,1,0,1.4L11.6,13l-3.3,3.3
    c-0.4,0.4-0.4,1,0,1.4C8.5,17.9,8.7,18,9,18s0.5-0.1,0.7-0.3L13,14.4l3.3,3.3c0.2,0.2,0.5,0.3,0.7,0.3s0.5-0.1,0.7-0.3
    c0.4-0.4,0.4-1,0-1.4L14.4,13l3.3-3.3C18.1,9.3,18.1,8.7,17.7,8.3z"/>
</svg>
