<?xml version="1.0" encoding="UTF-8" standalone="no"?>
<svg
   width="400"
   height="400"
   viewBox="0 0 400 400"
   fill="none"
   version="1.1"
   id="svg3"
   sodipodi:docname="icon.svg"
   xml:space="preserve"
   inkscape:version="1.4.3 (0d15f75, 2025-12-25)"
   xmlns:inkscape="http://www.inkscape.org/namespaces/inkscape"
   xmlns:sodipodi="http://sodipodi.sourceforge.net/DTD/sodipodi-0.dtd"
   xmlns="http://www.w3.org/2000/svg"
   xmlns:svg="http://www.w3.org/2000/svg"><sodipodi:namedview
     id="namedview3"
     pagecolor="#ffffff"
     bordercolor="#000000"
     borderopacity="0.25"
     inkscape:showpageshadow="2"
     inkscape:pageopacity="0.0"
     inkscape:pagecheckerboard="0"
     inkscape:deskcolor="#d1d1d1"
     inkscape:zoom="2.0175"
     inkscape:cx="210.65675"
     inkscape:cy="192.56506"
     inkscape:window-width="1920"
     inkscape:window-height="1009"
     inkscape:window-x="1912"
     inkscape:window-y="-8"
     inkscape:window-maximized="1"
     inkscape:current-layer="g3" /><g
     clip-path="url(#clip0_73_1152)"
     id="g3"
     style="display:inline"><circle
       cx="12.525912"
       cy="13"
       fill="none"
       stroke="#e53e3e"
       stroke-width="1.5"
       id="circle1"
       r="12"
       inkscape:label="circleOuter"
       transform="matrix(13.413903,0,0,13.413903,31.978623,25.619261)" /><path
       fill="#e53e3e"
       stroke="#e53e3e"
       stroke-width="1.35691"
       d="m 17.627906,7.8886 c -0.434212,-0.4342123 -1.08553,-0.4342123 -1.519742,0 L 12.525912,11.470851 8.9436618,7.8886 c -0.4342122,-0.4342123 -1.0855306,-0.4342123 -1.5197429,0 -0.4342122,0.4342122 -0.4342122,1.0855306 0,1.5197429 L 11.00617,12.990594 7.4239189,16.572845 c -0.4342122,0.434213 -0.4342122,1.085531 0,1.519743 0.2171062,0.217106 0.4342123,0.325659 0.7598715,0.325659 0.3256592,0 0.5427653,-0.108553 0.7598714,-0.325659 l 3.5822502,-3.582251 3.582252,3.582251 c 0.217106,0.217106 0.542765,0.325659 0.759871,0.325659 0.217106,0 0.542765,-0.108553 0.759871,-0.325659 0.434213,-0.434212 0.434213,-1.08553 0,-1.519743 l -3.582251,-3.582251 3.582251,-3.5822511 c 0.434213,-0.4342123 0.434213,-1.0855307 0,-1.5197429 z"
       id="path1-9"
       inkscape:label="pathX"
       transform="matrix(13.413903,0,0,13.413903,31.978623,25.619261)" /></g><defs
     id="defs3"><clipPath
       id="clip0_73_1152"><rect
         width="400"
         height="400"
         fill="white"
         id="rect3" /></clipPath></defs></svg>
